<?xml version="1.0" standalone="no"?><!DOCTYPE svg PUBLIC "-//W3C//DTD SVG 1.1//EN" "http://www.w3.org/Graphics/SVG/1.1/DTD/svg11.dtd"><svg t="1557212798560" class="icon" style="" viewBox="0 0 1024 1024" version="1.1" xmlns="http://www.w3.org/2000/svg" p-id="25487" xmlns:xlink="http://www.w3.org/1999/xlink" width="200" height="200"><defs><style type="text/css"></style></defs><path d="M801.109381 360.430859a401.609934 401.609934 0 1 0-440.675627 440.675628 402.887784 402.887784 0 0 0 440.675627-440.675628z m-146.039976 74.297838A255.569958 255.569958 0 1 1 368.283402 147.760144a255.569958 255.569958 0 0 1 286.603453 286.968553z" p-id="25488" fill="#1296db"></path><path d="M597.699905 689.527472m45.953307-45.953307l-0.129083 0.129083q45.953307-45.953307 91.906613 0l269.523888 269.523887q45.953307 45.953307 0 91.906613l0.129082-0.129082q-45.953307 45.953307-91.906613 0l-269.523887-269.523888q-45.953307-45.953307 0-91.906613Z" p-id="25489" fill="#1296db"></path></svg>